<svg width="28" height="28" viewBox="0 0 28 28" fill="none" xmlns="http://www.w3.org/2000/svg">
<g id="coins-swap-01">
<g id="Icon" filter="url(#filter0_i_12_117)">
<path d="M7.00004 6.99992L9.33337 4.66659M9.33337 4.66659L7.00004 2.33325M9.33337 4.66659H7.00004C4.42271 4.66659 2.33337 6.75592 2.33337 9.33325M21 20.9999L18.6667 23.3333M18.6667 23.3333L21 25.6666M18.6667 23.3333H21C23.5774 23.3333 25.6667 21.2439 25.6667 18.6666M15.6534 15.6533C16.566 16.0892 17.5879 16.3333 18.6667 16.3333C22.5327 16.3333 25.6667 13.1992 25.6667 9.33325C25.6667 5.46726 22.5327 2.33325 18.6667 2.33325C14.8007 2.33325 11.6667 5.46726 11.6667 9.33325C11.6667 10.4121 11.9108 11.4339 12.3467 12.3466M16.3334 18.6666C16.3334 22.5326 13.1994 25.6666 9.33337 25.6666C5.46738 25.6666 2.33337 22.5326 2.33337 18.6666C2.33337 14.8006 5.46738 11.6666 9.33337 11.6666C13.1994 11.6666 16.3334 14.8006 16.3334 18.6666Z" stroke="#52C5FA" stroke-width="1.8" stroke-linecap="round" stroke-linejoin="round"/>
</g>
</g>
<defs>
<filter id="filter0_i_12_117" x="1.43335" y="1.43335" width="25.1333" height="27.1333" filterUnits="userSpaceOnUse" color-interpolation-filters="sRGB">
<feFlood flood-opacity="0" result="BackgroundImageFix"/>
<feBlend mode="normal" in="SourceGraphic" in2="BackgroundImageFix" result="shape"/>
<feColorMatrix in="SourceAlpha" type="matrix" values="0 0 0 0 0 0 0 0 0 0 0 0 0 0 0 0 0 0 127 0" result="hardAlpha"/>
<feOffset dy="2"/>
<feGaussianBlur stdDeviation="1"/>
<feComposite in2="hardAlpha" operator="arithmetic" k2="-1" k3="1"/>
<feColorMatrix type="matrix" values="0 0 0 0 1 0 0 0 0 1 0 0 0 0 1 0 0 0 0.47 0"/>
<feBlend mode="overlay" in2="shape" result="effect1_innerShadow_12_117"/>
</filter>
</defs>
</svg>
