<svg width="32" height="32" viewBox="0 0 32 32" fill="none" xmlns="http://www.w3.org/2000/svg">
<g id="credit-card-lock">
<g id="Icon" filter="url(#filter0_i_12_35)">
<path d="M27 23.3333V21C27 19.7113 25.9553 18.6666 24.6667 18.6666C23.378 18.6666 22.3333 19.7113 22.3333 21V23.3333M29.3333 13.3333H2.66666M29.3333 14.6666V10.9333C29.3333 9.43982 29.3333 8.69308 29.0427 8.12265C28.787 7.62089 28.3791 7.21294 27.8773 6.95728C27.3069 6.66663 26.5601 6.66663 25.0667 6.66663H6.93332C5.43985 6.66663 4.69311 6.66663 4.12268 6.95728C3.62092 7.21294 3.21297 7.62089 2.95731 8.12265C2.66666 8.69308 2.66666 9.43982 2.66666 10.9333V21.0666C2.66666 22.5601 2.66666 23.3068 2.95731 23.8773C3.21297 24.379 3.62092 24.787 4.12268 25.0426C4.69311 25.3333 5.43985 25.3333 6.93332 25.3333H14.6667M22.1333 28.6666H27.2C27.9467 28.6666 28.3201 28.6666 28.6053 28.5213C28.8562 28.3935 29.0602 28.1895 29.188 27.9386C29.3333 27.6534 29.3333 27.28 29.3333 26.5333V25.4666C29.3333 24.7199 29.3333 24.3465 29.188 24.0613C29.0602 23.8104 28.8562 23.6064 28.6053 23.4786C28.3201 23.3333 27.9467 23.3333 27.2 23.3333H22.1333C21.3866 23.3333 21.0132 23.3333 20.728 23.4786C20.4771 23.6064 20.2731 23.8104 20.1453 24.0613C20 24.3465 20 24.7199 20 25.4666V26.5333C20 27.28 20 27.6534 20.1453 27.9386C20.2731 28.1895 20.4771 28.3935 20.728 28.5213C21.0132 28.6666 21.3866 28.6666 22.1333 28.6666Z" stroke="#52C5FA" stroke-width="1.8" stroke-linecap="round" stroke-linejoin="round"/>
</g>
</g>
<defs>
<filter id="filter0_i_12_35" x="1.76666" y="5.7666" width="28.4667" height="25.8" filterUnits="userSpaceOnUse" color-interpolation-filters="sRGB">
<feFlood flood-opacity="0" result="BackgroundImageFix"/>
<feBlend mode="normal" in="SourceGraphic" in2="BackgroundImageFix" result="shape"/>
<feColorMatrix in="SourceAlpha" type="matrix" values="0 0 0 0 0 0 0 0 0 0 0 0 0 0 0 0 0 0 127 0" result="hardAlpha"/>
<feOffset dy="2"/>
<feGaussianBlur stdDeviation="1"/>
<feComposite in2="hardAlpha" operator="arithmetic" k2="-1" k3="1"/>
<feColorMatrix type="matrix" values="0 0 0 0 1 0 0 0 0 1 0 0 0 0 1 0 0 0 0.47 0"/>
<feBlend mode="overlay" in2="shape" result="effect1_innerShadow_12_35"/>
</filter>
</defs>
</svg>
